<?xml version="1.0" encoding="utf-8"?>
<!-- Generator: Adobe Illustrator 22.0.1, SVG Export Plug-In . SVG Version: 6.00 Build 0)  -->
<svg version="1.1" id="圖層_1" xmlns="http://www.w3.org/2000/svg" xmlns:xlink="http://www.w3.org/1999/xlink" x="0px" y="0px"
	 viewBox="0 0 216 100.6" style="enable-background:new 0 0 216 100.6;" xml:space="preserve">
<style type="text/css">
	.st0{fill:#FFFFFF;}
</style>
<g id="圖層_2_1_">
</g>
<g id="Ebene_1">
	<g>
		<path class="st0" d="M57,80.6c-0.2,0.6-0.3,1.2-0.4,1.7c-0.1,0.5-0.1,1-0.1,1.3c0,0.6,0.2,1.1,0.7,1.4c0.4,0.3,1.2,0.5,2.3,0.5V87
			c-0.9-0.1-1.7-0.2-2.3-0.3c-0.6,0-1.3-0.1-2-0.1s-1.4,0-2,0.1c-0.6,0-1.4,0.1-2.3,0.3v-1.5c0.7-0.1,1.2-0.2,1.7-0.3
			c0.4-0.1,0.8-0.3,1.1-0.6c0.3-0.3,0.5-0.7,0.8-1.3c0.2-0.5,0.5-1.3,0.7-2.2l10.5-37.7l9.4,38.4c0.2,0.7,0.4,1.3,0.6,1.8
			c0.2,0.5,0.4,0.8,0.7,1.1c0.3,0.3,0.7,0.4,1.1,0.6c0.4,0.1,1,0.2,1.7,0.3V87c-1.3-0.2-2.3-0.3-3.1-0.4s-1.6-0.1-2.4-0.1
			c-0.9,0-1.7,0-2.5,0.1s-1.8,0.2-3.1,0.4v-1.5c1-0.1,1.7-0.3,2.1-0.6c0.4-0.3,0.6-0.7,0.6-1.3c0-0.5-0.1-1.2-0.3-2.1L69,74.7H58.7
			L57,80.6z M68.5,72.7l-4.3-18.8l-5.1,18.8H68.5z"/>
		<path class="st0" d="M102.1,58.1v2.5l-4.3-0.2c0.4,0.8,0.7,1.7,0.8,2.5c0.2,0.8,0.3,1.8,0.3,2.8c0,3.2-0.9,5.7-2.7,7.5
			c-0.5,0.5-1.1,1-1.6,1.3s-1.4,0.7-2.7,1.2l-1.3,0.5c-1.6,0.6-2.6,1.1-3.1,1.5s-0.7,0.9-0.7,1.5c0,0.8,0.3,1.3,0.9,1.6
			c0.6,0.3,1.6,0.5,3.1,0.5c0.5,0,1.1,0.1,1.7,0.2c0.6,0.1,1.2,0.2,1.8,0.3c0.6,0.1,1.1,0.2,1.6,0.4c0.5,0.1,0.9,0.3,1.2,0.5
			c1.3,0.6,2.3,1.5,3,2.7s1,2.7,1,4.5c0,1.4-0.2,2.7-0.7,3.9c-0.5,1.2-1.1,2.2-2,3s-1.9,1.5-3.1,2c-1.2,0.5-2.6,0.7-4,0.7
			s-2.7-0.2-3.9-0.6s-2.2-1-3-1.8s-1.5-1.7-1.9-2.7c-0.5-1.1-0.7-2.3-0.7-3.6c0-1.6,0.4-2.9,1.1-4c0.7-1.1,1.8-2,3.3-2.7
			c-0.8-0.5-1.4-1-1.8-1.6c-0.3-0.5-0.5-1.2-0.5-2.1c0-2.3,1.6-4,4.8-5.2c-1.7-0.7-3-1.8-3.9-3.4c-0.9-1.5-1.4-3.4-1.4-5.6
			c0-3,0.7-5.4,2.1-7.1c1.4-1.7,3.4-2.5,5.9-2.5c0.9,0,1.8,0.1,2.5,0.4c0.7,0.3,1.4,0.7,2.2,1.3h6V58.1z M90.7,85.7
			c-2.3,0-4,0.5-5.2,1.4s-1.8,2.3-1.8,4c0,0.9,0.2,1.7,0.6,2.5c0.4,0.8,0.9,1.4,1.5,2c0.6,0.5,1.4,1,2.3,1.3c0.9,0.3,1.9,0.5,3,0.5
			c2.2,0,3.9-0.5,5.1-1.6c1.3-1.1,1.9-2.6,1.9-4.5c0-1.7-0.5-3-1.5-3.9c-0.6-0.5-1.4-0.9-2.5-1.2C92.9,85.9,91.8,85.7,90.7,85.7z
			 M91.1,58c-1.3,0-2.2,0.7-3,2.1c-0.7,1.4-1.1,3.2-1.1,5.6c0,2.5,0.4,4.5,1.1,6c0.7,1.5,1.7,2.2,3,2.2s2.2-0.7,2.9-2.1s1-3.4,1-6
			c0-2.4-0.3-4.3-1-5.7C93.3,58.7,92.4,58,91.1,58z"/>
		<path class="st0" d="M111.9,82.3c0,1.3,0.2,2.2,0.6,2.7c0.4,0.4,1.2,0.7,2.6,0.8V87c-1.3-0.2-2.2-0.3-2.9-0.3s-1.4-0.1-2.2-0.1
			c-0.7,0-1.4,0-2.2,0.1c-0.7,0-1.7,0.1-2.9,0.3v-1.3c0.6,0,1.2-0.1,1.6-0.2c0.4-0.1,0.7-0.3,0.9-0.5c0.2-0.3,0.4-0.6,0.5-1
			s0.1-1,0.1-1.6v-20c0-0.8,0-1.5-0.1-2s-0.2-0.9-0.4-1.1c-0.2-0.3-0.5-0.4-0.9-0.5s-0.9-0.1-1.6-0.1v-1.1c1.3-0.2,2.5-0.4,3.6-0.6
			c1.1-0.3,2.2-0.6,3.4-1L111.9,82.3L111.9,82.3z M109.8,45.1c0.8,0,1.4,0.3,1.9,0.9c0.5,0.6,0.8,1.3,0.8,2.1s-0.3,1.6-0.8,2.2
			c-0.5,0.6-1.2,0.9-2,0.9s-1.4-0.3-1.9-0.9c-0.5-0.6-0.8-1.3-0.8-2.2c0-0.8,0.3-1.6,0.8-2.1C108.4,45.4,109,45.1,109.8,45.1z"/>
		<path class="st0" d="M125.3,82.3c0,1.3,0.2,2.2,0.6,2.7c0.4,0.4,1.2,0.7,2.6,0.8V87c-1.3-0.2-2.2-0.3-2.9-0.3s-1.4-0.1-2.2-0.1
			c-0.7,0-1.4,0-2.2,0.1c-0.7,0-1.7,0.1-2.9,0.3v-1.3c0.6,0,1.2-0.1,1.6-0.2c0.4-0.1,0.7-0.3,0.9-0.5c0.2-0.3,0.4-0.6,0.5-1
			s0.1-1,0.1-1.6v-32c0-0.8,0-1.4-0.1-1.9s-0.2-0.9-0.4-1.1c-0.2-0.3-0.5-0.4-0.9-0.5s-0.9-0.1-1.6-0.1v-1.1c2.4-0.3,4.8-0.8,7-1.6
			L125.3,82.3L125.3,82.3z"/>
		<path class="st0" d="M138.1,82.3c0,1.3,0.2,2.2,0.6,2.7c0.4,0.4,1.2,0.7,2.6,0.8V87c-1.3-0.2-2.2-0.3-2.9-0.3s-1.4-0.1-2.2-0.1
			c-0.7,0-1.4,0-2.2,0.1c-0.7,0-1.7,0.1-2.9,0.3v-1.3c0.6,0,1.2-0.1,1.6-0.2c0.4-0.1,0.7-0.3,0.9-0.5c0.2-0.3,0.4-0.6,0.5-1
			s0.1-1,0.1-1.6v-20c0-0.8,0-1.5-0.1-2s-0.2-0.9-0.4-1.1c-0.2-0.3-0.5-0.4-0.9-0.5s-0.9-0.1-1.6-0.1v-1.1c1.3-0.2,2.5-0.4,3.6-0.6
			c1.1-0.3,2.2-0.6,3.4-1L138.1,82.3L138.1,82.3z M136,45.1c0.8,0,1.4,0.3,1.9,0.9c0.5,0.6,0.8,1.3,0.8,2.1s-0.3,1.6-0.8,2.2
			c-0.5,0.6-1.2,0.9-2,0.9s-1.4-0.3-1.9-0.9c-0.5-0.6-0.8-1.3-0.8-2.2c0-0.8,0.3-1.6,0.8-2.1C134.6,45.4,135.2,45.1,136,45.1z"/>
		<path class="st0" d="M156.8,85.6c-0.9,0.7-1.6,1.1-2.3,1.4s-1.4,0.4-2.1,0.4c-1,0-1.8-0.2-2.6-0.7c-0.7-0.4-1.3-1.1-1.7-1.9
			c-0.4-0.7-0.6-1.6-0.8-2.6s-0.2-2.3-0.2-4v-0.9l0.2-18h-2.8v-2c1.4,0,2.6-0.8,3.5-2.3s1.6-3.9,2-7.1h1.3v9h5.1v2.3h-5.1v18.6
			c0,1,0,1.8,0,2.4s0,1.1,0.1,1.5c0,0.4,0.1,0.7,0.2,1c0.1,0.3,0.2,0.5,0.3,0.8c0.4,0.8,1.1,1.3,2,1.3c0.8,0,1.7-0.4,2.9-1.3
			L156.8,85.6L156.8,85.6z"/>
		<path class="st0" d="M162.1,61c-0.2-0.6-0.3-1.1-0.5-1.4c-0.2-0.4-0.4-0.6-0.7-0.9c-0.3-0.2-0.6-0.4-0.9-0.5
			c-0.4-0.1-0.8-0.2-1.4-0.2v-1.3c1,0.1,1.9,0.2,2.6,0.3c0.7,0,1.4,0.1,2.2,0.1s1.5,0,2.2-0.1c0.7,0,1.5-0.1,2.6-0.3V58
			c-0.9,0.1-1.5,0.2-1.8,0.4c-0.4,0.2-0.5,0.5-0.5,0.9c0,0.3,0.1,0.9,0.3,1.8l4.5,17.9l4.8-17.6c0.1-0.5,0.2-0.9,0.3-1.2
			s0.1-0.6,0.1-0.8c0-0.5-0.2-0.8-0.6-1c-0.4-0.2-1.1-0.3-2-0.3v-1.3c0.7,0.1,1.3,0.1,1.8,0.2c0.5,0,1.1,0.1,1.7,0.1
			c0.6,0,1.3,0,1.8-0.1c0.6,0,1.3-0.1,2.2-0.2v1.3c-1,0.2-1.8,0.5-2.3,0.9s-0.9,1.2-1.2,2.2l-8.6,30.9c-0.8,3.1-2,5.1-3.4,6.1
			c-1.2,0.8-2.3,1.1-3.2,1c-0.2,0-0.3-0.1-0.3-0.1s-0.1,0-0.3,0V96h0.5c1.4,0,2.5-0.4,3.3-1.3c0.9-0.8,1.6-2.2,2.1-4.2l1.4-4.7
			L162.1,61z"/>
	</g>
</g>
</svg>
